<svg width="456" height="63" viewBox="0 0 456 63" fill="none" xmlns="http://www.w3.org/2000/svg">
<g clip-path="url(#clip0_2061_918)">
<path d="M334.146 5.53482H329.112V1.18506H305.803V5.53482H300.654V57.0046H305.714V61.3544H329.112V57.0046H334.151V5.53482H334.146ZM324.072 9.88459V52.6597H310.728V9.87971H324.072V9.88459Z" fill="black"/>
<path d="M0 1.18506H9.88625V53.0551H26.0028L25.1603 61.3495H0V1.18506Z" fill="black"/>
<path d="M52.9624 33.8693H38.8741V52.8208H55.1154L53.8621 61.3543H28.993V1.18994H53.7425V9.80159H38.8741V25.3358H52.9624V33.8693Z" fill="black"/>
<path d="M69.6562 45.2588L67.4096 61.3544H57.3569L67.68 1.18506H81.6487L92.3671 61.3495H82.0388L79.5165 45.2539H69.6562V45.2588ZM78.3464 36.7252C76.8798 26.5074 75.4809 16.8071 74.7476 10.0066H74.3887C74.1131 14.9666 72.1837 27.8451 70.9096 36.7252H78.3516H78.3464Z" fill="black"/>
<path d="M96.1478 1.18506H109.856C123.456 1.18506 126.758 7.80002 126.758 18.9649V42.0367C126.758 51.2342 125.078 61.3495 109.836 61.3495H96.1426V1.18506H96.1478ZM106.034 53.4506H109.201C115.697 53.4506 116.695 49.5255 116.695 43.2962V18.2326C116.695 12.7014 115.655 9.16207 109.139 9.16207H106.029V53.4506H106.034Z" fill="black"/>
<path d="M143.072 1.18506V61.3495H133.186V1.18506H143.072Z" fill="black"/>
<path d="M150.842 61.3495V1.18506H162.288C164.842 9.67466 172.492 39.3712 173.168 42.5591H173.277C172.82 35.1581 172.799 26.6929 172.799 16.8071V1.18506H181.926V61.3495H170.911C168.888 54.1633 160.359 21.1666 159.719 18.6378H159.626C160.094 25.9216 160.057 34.0792 160.057 44.8975V61.3495H150.847H150.842Z" fill="black"/>
<path d="M218.589 61.3493H210.887C210.622 60.2899 210.43 58.1126 210.346 56.8336C208.568 60.8367 204.85 62.228 200.715 62.228C191.281 62.228 188.244 55.8181 188.244 45.6247V17.3684C188.244 7.54112 192.321 0.311035 203.461 0.311035C216.92 0.311035 218.34 9.60127 218.34 16.06V18.0128H208.453V15.606C208.453 12.4328 207.965 8.76647 203.445 8.76647C199.847 8.76647 198.307 11.1049 198.307 15.9087V46.6841C198.307 51.4977 199.795 54.0167 203.362 54.0167C207.647 54.0167 208.693 50.6482 208.693 44.4628V35.6803H203.087V27.7033H218.589V61.3542V61.3493Z" fill="black"/>
<path d="M237.301 1.18506H250.459C261.557 1.18506 265.816 6.05719 265.816 14.8836V17.0951C265.816 25.6287 262.67 28.094 259.866 29.1876C262.727 30.2567 267.002 32.5024 267.002 41.2556V45.8153C267.002 55.9892 262.482 61.3495 251.327 61.3495H237.296V1.18506H237.301ZM249.346 25.6824C254.874 25.6824 256.528 24.0811 256.528 18.1155V15.7673C256.528 10.7731 254.635 8.84474 249.907 8.84474H246.849V25.6824H249.346ZM246.849 53.7679H250.152C255.857 53.7679 257.282 51.4002 257.282 45.5761V41.5681C257.282 35.7 255.696 33.181 249.398 33.181H246.849V53.763V53.7679Z" fill="black"/>
<path d="M272.421 1.18506H282.307V53.0551H298.423L297.581 61.3495H272.421V1.18506Z" fill="black"/>
<path d="M367.669 43.3595V45.7077C367.669 52.5863 366.447 62.228 352.894 62.228C341.021 62.228 338.509 55.2665 338.509 46.0836V15.7476C338.509 6.46222 342.997 0.306152 353.066 0.306152C365.089 0.306152 367.383 7.78521 367.383 16.1235V18.8183H357.476V15.0348C357.476 11.0365 356.477 8.76159 353.045 8.76159C349.67 8.76159 348.577 10.9536 348.577 15.069V46.8794C348.577 50.8044 349.41 53.8556 353.164 53.8556C356.732 53.8556 357.678 51.2047 357.678 46.728V43.3644H367.669V43.3595Z" fill="black"/>
<path d="M372.505 1.18506H382.22V28.3625H382.313C384.768 22.4164 390.255 9.46474 393.786 1.18506H404.79L393.115 24.5644L405.482 61.3544H394.717L386.349 34.2647L382.215 42.3687V61.3544H372.5V1.18506H372.505Z" fill="black"/>
<path d="M416.554 43.6427V47.3578C416.554 51.8345 417.984 54.3291 421.744 54.3291C425.598 54.3291 426.596 50.9021 426.596 46.9965C426.596 40.528 425.109 38.5216 418.239 33.4347C411.343 28.3233 407.656 25.0524 407.656 16.1479C407.656 8.21969 410.209 0.218272 421.78 0.228036C433.612 0.2378 435.437 8.15623 435.437 14.6833V17.8956H425.639V14.9323C425.639 10.7436 424.885 8.20993 421.603 8.20993C418.39 8.20993 417.542 10.8315 417.542 14.82C417.542 19.0721 418.4 21.1518 424.037 25.0232C433.627 31.6821 436.571 35.5485 436.571 45.615C436.571 54.1485 433.383 62.2378 421.427 62.2378C409.569 62.2378 406.683 55.1493 406.683 47.2211V43.6524H416.569L416.554 43.6427Z" fill="black"/>
<path d="M440.024 9.50362V1.10189H436.56V0.257324H444.528V1.10189H441.064V9.50362H440.024Z" fill="black"/>
<path d="M445.77 9.50362V0.252441H446.629L451.132 7.46788H450.68L455.142 0.252441H456V9.50362H455.001V1.72189H455.241L451.132 8.32709H450.638L446.499 1.72189H446.764V9.50362H445.765H445.77Z" fill="black"/>
</g>
<defs>
<clipPath id="clip0_2061_918">
<rect width="456" height="62" fill="white" transform="translate(0 0.228027)"/>
</clipPath>
</defs>
</svg>
